<svg xmlns="http://www.w3.org/2000/svg" width="1600" height="900" viewBox="0 0 1600 900">
  <defs>
    <linearGradient id="bg" x1="0" y1="0" x2="0" y2="1">
      <stop offset="0%" stop-color="#F6F8FA"/>
      <stop offset="100%" stop-color="#F0F2F5"/>
    </linearGradient>
    <filter id="shadow"><feDropShadow dx="0" dy="1" stdDeviation="4" flood-color="#0F172A" flood-opacity="0.06"/></filter>
    <filter id="callout"><feDropShadow dx="0" dy="3" stdDeviation="5" flood-color="#0F172A" flood-opacity="0.12"/></filter>
  </defs>

  <rect width="1600" height="900" fill="url(#bg)"/>

  <!-- Nav bar -->
  <rect width="1600" height="52" fill="#FFFFFF"/>
  <line x1="0" y1="52" x2="1600" y2="52" stroke="#E2E8F0" stroke-width="1"/>

  <!-- Dashboard tab -->
  <rect x="20" y="12" width="90" height="28" rx="7" fill="transparent"/>
  <rect x="28" y="18" width="14" height="14" rx="2" stroke="#94A3B8" stroke-width="1.3" fill="none"/>
  <rect x="29" y="19" width="4" height="4" rx="0.5" stroke="#94A3B8" stroke-width="1.3" fill="none"/>
  <rect x="35" y="19" width="4" height="4" rx="0.5" stroke="#94A3B8" stroke-width="1.3" fill="none"/>
  <rect x="29" y="25" width="4" height="4" rx="0.5" stroke="#94A3B8" stroke-width="1.3" fill="none"/>
  <rect x="35" y="25" width="4" height="4" rx="0.5" stroke="#94A3B8" stroke-width="1.3" fill="none"/>
  <text x="48" y="30" font-family="system-ui, -apple-system, sans-serif" font-size="13" fill="#64748B">Dashboard</text>

  <!-- Settings tab -->
  <rect x="106" y="12" width="80" height="28" rx="7" fill="transparent"/>
  <rect x="114" y="18" width="14" height="14" rx="3" stroke="#94A3B8" stroke-width="1.3" fill="none"/>
  <circle cx="121" cy="25" r="2.3" stroke="#94A3B8" stroke-width="1.3" fill="none"/>
  <line x1="121" y1="19" x2="121" y2="21" stroke="#94A3B8" stroke-width="1.3" stroke-linecap="round"/>
  <line x1="121" y1="28" x2="121" y2="30" stroke="#94A3B8" stroke-width="1.3" stroke-linecap="round"/>
  <line x1="115" y1="25" x2="116" y2="25" stroke="#94A3B8" stroke-width="1.3" stroke-linecap="round"/>
  <line x1="126" y1="25" x2="127" y2="25" stroke="#94A3B8" stroke-width="1.3" stroke-linecap="round"/>
  <text x="134" y="30" font-family="system-ui, -apple-system, sans-serif" font-size="13" fill="#64748B">Settings</text>

  <!-- Reports tab (active) -->
  <rect x="190" y="12" width="90" height="28" rx="7" fill="#EFF6FF"/>
  <rect x="200" y="18" width="14" height="14" rx="1.5" stroke="#2563EB" stroke-width="1.3" fill="none"/>
  <line x1="203" y1="23" x2="208" y2="23" stroke="#2563EB" stroke-width="1.3" stroke-linecap="round"/>
  <line x1="203" y1="27" x2="208" y2="27" stroke="#2563EB" stroke-width="1.3" stroke-linecap="round"/>
  <text x="220" y="30" font-family="system-ui, -apple-system, sans-serif" font-size="13" font-weight="600" fill="#2563EB">Reports</text>

  <!-- Privacy pill -->
  <rect x="1470" y="13" width="106" height="26" rx="13" fill="#F8FAFC" stroke="#E2E8F0" stroke-width="1"/>
  <path d="M1483 22l5-2v2.8c0 2 3.2 3.2 3.2 3.2s3.3-1.2 3.3-3.2V20l5 2" stroke="#94A3B8" stroke-width="1.3" fill="none" stroke-linecap="round"/>
  <text x="1508" y="30" font-family="system-ui, -apple-system, sans-serif" font-size="12.5" fill="#94A3B8">Privacy</text>

  <!-- Page title -->
  <text x="32" y="96" font-family="system-ui, -apple-system, sans-serif" font-size="22" font-weight="700" fill="#0F172A">Reports</text>

  <!-- Stat cards -->
  <rect x="32" y="120" width="502" height="64" rx="8" fill="#FFFFFF" stroke="#E2E8F0" stroke-width="1" filter="url(#shadow)"/>
  <rect x="32" y="120" width="4" height="64" rx="2" fill="#3B82F6"/>
  <text x="50" y="146" font-family="system-ui, -apple-system, sans-serif" font-size="12" fill="#64748B">Total Scans</text>
  <text x="50" y="170" font-family="system-ui, -apple-system, sans-serif" font-size="24" font-weight="700" fill="#0F172A">47</text>

  <rect x="546" y="120" width="502" height="64" rx="8" fill="#FFFFFF" stroke="#E2E8F0" stroke-width="1" filter="url(#shadow)"/>
  <rect x="546" y="120" width="4" height="64" rx="2" fill="#DC2626"/>
  <text x="564" y="146" font-family="system-ui, -apple-system, sans-serif" font-size="12" fill="#64748B">Dead Stock Found</text>
  <text x="564" y="170" font-family="system-ui, -apple-system, sans-serif" font-size="24" font-weight="700" fill="#DC2626">312</text>

  <rect x="1060" y="120" width="508" height="64" rx="8" fill="#FFFFFF" stroke="#E2E8F0" stroke-width="1" filter="url(#shadow)"/>
  <rect x="1060" y="120" width="4" height="64" rx="2" fill="#059669"/>
  <text x="1078" y="146" font-family="system-ui, -apple-system, sans-serif" font-size="12" fill="#64748B">Resolved</text>
  <text x="1078" y="170" font-family="system-ui, -apple-system, sans-serif" font-size="24" font-weight="700" fill="#059669">89</text>

  <!-- Scan History + Dead Stock History row -->
  <rect x="32" y="204" width="760" height="270" rx="8" fill="#FFFFFF" stroke="#E2E8F0" stroke-width="1" filter="url(#shadow)"/>
  <text x="48" y="236" font-family="system-ui, -apple-system, sans-serif" font-size="15" font-weight="600" fill="#0F172A">Scan History</text>

  <!-- Scan History table header -->
  <rect x="48" y="252" width="728" height="32" rx="6" fill="#F8FAFC"/>
  <text x="62" y="273" font-family="system-ui, -apple-system, sans-serif" font-size="11" font-weight="700" fill="#64748B">Date</text>
  <text x="220" y="273" font-family="system-ui, -apple-system, sans-serif" font-size="11" font-weight="700" fill="#64748B">Time</text>
  <text x="370" y="273" font-family="system-ui, -apple-system, sans-serif" font-size="11" font-weight="700" fill="#64748B">Products</text>
  <text x="530" y="273" font-family="system-ui, -apple-system, sans-serif" font-size="11" font-weight="700" fill="#64748B">Status</text>

  <!-- Row 1 -->
  <rect x="48" y="284" width="728" height="36" fill="#FFFFFF"/>
  <text x="62" y="308" font-family="system-ui, -apple-system, sans-serif" font-size="12" fill="#0F172A">Jun 21, 2026</text>
  <text x="220" y="308" font-family="system-ui, -apple-system, sans-serif" font-size="12" fill="#64748B">2:30 PM</text>
  <text x="380" y="308" font-family="system-ui, -apple-system, sans-serif" font-size="12" fill="#0F172A">245</text>
  <rect x="522" y="294" width="76" height="20" rx="4" fill="#ECFDF5"/>
  <text x="530" y="308" font-family="system-ui, -apple-system, sans-serif" font-size="10" fill="#059669" font-weight="600">Completed</text>
  <line x1="48" y1="320" x2="776" y2="320" stroke="#F1F5F9" stroke-width="1"/>

  <!-- Row 2 -->
  <rect x="48" y="320" width="728" height="36" fill="#FFFFFF"/>
  <text x="62" y="344" font-family="system-ui, -apple-system, sans-serif" font-size="12" fill="#0F172A">Jun 20, 2026</text>
  <text x="220" y="344" font-family="system-ui, -apple-system, sans-serif" font-size="12" fill="#64748B">10:15 AM</text>
  <text x="380" y="344" font-family="system-ui, -apple-system, sans-serif" font-size="12" fill="#0F172A">245</text>
  <rect x="522" y="330" width="76" height="20" rx="4" fill="#ECFDF5"/>
  <text x="530" y="344" font-family="system-ui, -apple-system, sans-serif" font-size="10" fill="#059669" font-weight="600">Completed</text>
  <line x1="48" y1="356" x2="776" y2="356" stroke="#F1F5F9" stroke-width="1"/>

  <!-- Row 3 -->
  <rect x="48" y="356" width="728" height="36" fill="#FFFFFF"/>
  <text x="62" y="380" font-family="system-ui, -apple-system, sans-serif" font-size="12" fill="#0F172A">Jun 18, 2026</text>
  <text x="220" y="380" font-family="system-ui, -apple-system, sans-serif" font-size="12" fill="#64748B">4:00 PM</text>
  <text x="380" y="380" font-family="system-ui, -apple-system, sans-serif" font-size="12" fill="#0F172A">245</text>
  <rect x="522" y="366" width="76" height="20" rx="4" fill="#FEE2E2"/>
  <text x="530" y="380" font-family="system-ui, -apple-system, sans-serif" font-size="10" fill="#DC2626" font-weight="600">Failed</text>
  <line x1="48" y1="392" x2="776" y2="392" stroke="#F1F5F9" stroke-width="1"/>

  <!-- Row 4 -->
  <rect x="48" y="392" width="728" height="36" fill="#FFFFFF"/>
  <text x="62" y="416" font-family="system-ui, -apple-system, sans-serif" font-size="12" fill="#0F172A">Jun 15, 2026</text>
  <text x="220" y="416" font-family="system-ui, -apple-system, sans-serif" font-size="12" fill="#64748B">9:00 AM</text>
  <text x="380" y="416" font-family="system-ui, -apple-system, sans-serif" font-size="12" fill="#0F172A">245</text>
  <rect x="522" y="402" width="76" height="20" rx="4" fill="#ECFDF5"/>
  <text x="530" y="416" font-family="system-ui, -apple-system, sans-serif" font-size="10" fill="#059669" font-weight="600">Completed</text>
  <line x1="48" y1="428" x2="776" y2="428" stroke="#F1F5F9" stroke-width="1"/>

  <!-- Row 5 -->
  <rect x="48" y="428" width="728" height="36" fill="#FFFFFF"/>
  <text x="62" y="452" font-family="system-ui, -apple-system, sans-serif" font-size="12" fill="#0F172A">Jun 12, 2026</text>
  <text x="220" y="452" font-family="system-ui, -apple-system, sans-serif" font-size="12" fill="#64748B">11:30 AM</text>
  <text x="380" y="452" font-family="system-ui, -apple-system, sans-serif" font-size="12" fill="#0F172A">245</text>
  <rect x="522" y="438" width="76" height="20" rx="4" fill="#ECFDF5"/>
  <text x="530" y="452" font-family="system-ui, -apple-system, sans-serif" font-size="10" fill="#059669" font-weight="600">Completed</text>

  <!-- Dead Stock History -->
  <rect x="808" y="204" width="760" height="270" rx="8" fill="#FFFFFF" stroke="#E2E8F0" stroke-width="1" filter="url(#shadow)"/>
  <text x="824" y="236" font-family="system-ui, -apple-system, sans-serif" font-size="15" font-weight="600" fill="#0F172A">Dead Stock History</text>

  <!-- Dead Stock History table header -->
  <rect x="824" y="252" width="728" height="32" rx="6" fill="#F8FAFC"/>
  <text x="838" y="273" font-family="system-ui, -apple-system, sans-serif" font-size="11" font-weight="700" fill="#64748B">Product</text>
  <text x="1100" y="273" font-family="system-ui, -apple-system, sans-serif" font-size="11" font-weight="700" fill="#64748B">Flagged</text>
  <text x="1260" y="273" font-family="system-ui, -apple-system, sans-serif" font-size="11" font-weight="700" fill="#64748B">Days</text>
  <text x="1420" y="273" font-family="system-ui, -apple-system, sans-serif" font-size="11" font-weight="700" fill="#64748B">Status</text>

  <!-- Row 1 -->
  <rect x="824" y="284" width="728" height="36" fill="#FFFFFF"/>
  <text x="838" y="308" font-family="system-ui, -apple-system, sans-serif" font-size="12" fill="#0F172A">Wool Blend Sweater</text>
  <text x="1100" y="308" font-family="system-ui, -apple-system, sans-serif" font-size="12" fill="#64748B">Jun 10</text>
  <text x="1260" y="308" font-family="system-ui, -apple-system, sans-serif" font-size="12" fill="#DC2626" font-weight="600">120d</text>
  <rect x="1412" y="294" width="56" height="20" rx="4" fill="#FEE2E2"/>
  <text x="1420" y="308" font-family="system-ui, -apple-system, sans-serif" font-size="10" fill="#DC2626" font-weight="600">Active</text>
  <line x1="824" y1="320" x2="1552" y2="320" stroke="#F1F5F9" stroke-width="1"/>

  <!-- Row 2 -->
  <rect x="824" y="320" width="728" height="36" fill="#FFFFFF"/>
  <text x="838" y="344" font-family="system-ui, -apple-system, sans-serif" font-size="12" fill="#0F172A">Classic Leather Jacket</text>
  <text x="1100" y="344" font-family="system-ui, -apple-system, sans-serif" font-size="12" fill="#64748B">Jun 14</text>
  <text x="1260" y="344" font-family="system-ui, -apple-system, sans-serif" font-size="12" fill="#D97706" font-weight="600">74d</text>
  <rect x="1412" y="330" width="56" height="20" rx="4" fill="#FEE2E2"/>
  <text x="1420" y="344" font-family="system-ui, -apple-system, sans-serif" font-size="10" fill="#DC2626" font-weight="600">Active</text>
  <line x1="824" y1="356" x2="1552" y2="356" stroke="#F1F5F9" stroke-width="1"/>

  <!-- Row 3 -->
  <rect x="824" y="356" width="728" height="36" fill="#FFFFFF"/>
  <text x="838" y="380" font-family="system-ui, -apple-system, sans-serif" font-size="12" fill="#0F172A">Canvas Backpack</text>
  <text x="1100" y="380" font-family="system-ui, -apple-system, sans-serif" font-size="12" fill="#64748B">Jun 16</text>
  <text x="1260" y="380" font-family="system-ui, -apple-system, sans-serif" font-size="12" fill="#16A34A" font-weight="600">32d</text>
  <rect x="1412" y="366" width="56" height="20" rx="4" fill="#FEE2E2"/>
  <text x="1420" y="380" font-family="system-ui, -apple-system, sans-serif" font-size="10" fill="#DC2626" font-weight="600">Active</text>
  <line x1="824" y1="392" x2="1552" y2="392" stroke="#F1F5F9" stroke-width="1"/>

  <!-- Row 4 -->
  <rect x="824" y="392" width="728" height="36" fill="#FFFFFF"/>
  <text x="838" y="416" font-family="system-ui, -apple-system, sans-serif" font-size="12" fill="#0F172A">Winter Boots (Size 10)</text>
  <text x="1100" y="416" font-family="system-ui, -apple-system, sans-serif" font-size="12" fill="#64748B">May 28</text>
  <text x="1260" y="416" font-family="system-ui, -apple-system, sans-serif" font-size="12" fill="#10B981" font-weight="600">25d</text>
  <rect x="1412" y="402" width="56" height="20" rx="4" fill="#ECFDF5"/>
  <text x="1420" y="416" font-family="system-ui, -apple-system, sans-serif" font-size="10" fill="#059669" font-weight="600">Resolved</text>
  <line x1="824" y1="428" x2="1552" y2="428" stroke="#F1F5F9" stroke-width="1"/>

  <!-- Row 5 -->
  <rect x="824" y="428" width="728" height="36" fill="#FFFFFF"/>
  <text x="838" y="452" font-family="system-ui, -apple-system, sans-serif" font-size="12" fill="#0F172A">Denim Jacket</text>
  <text x="1100" y="452" font-family="system-ui, -apple-system, sans-serif" font-size="12" fill="#64748B">Jun 8</text>
  <text x="1260" y="452" font-family="system-ui, -apple-system, sans-serif" font-size="12" fill="#DC2626" font-weight="600">95d</text>
  <rect x="1412" y="438" width="56" height="20" rx="4" fill="#FEE2E2"/>
  <text x="1420" y="452" font-family="system-ui, -apple-system, sans-serif" font-size="10" fill="#DC2626" font-weight="600">Active</text>

  <!-- Export Reports card -->
  <rect x="32" y="494" width="1536" height="100" rx="8" fill="#FFFFFF" stroke="#E2E8F0" stroke-width="1" filter="url(#shadow)"/>
  <text x="48" y="526" font-family="system-ui, -apple-system, sans-serif" font-size="15" font-weight="600" fill="#0F172A">Export Reports</text>
  <text x="48" y="548" font-family="system-ui, -apple-system, sans-serif" font-size="12" fill="#64748B">Download your dead stock data for external analysis or record keeping.</text>

  <rect x="48" y="562" width="130" height="24" rx="6" fill="#FFFFFF" stroke="#E2E8F0" stroke-width="1"/>
  <text x="72" y="579" font-family="system-ui, -apple-system, sans-serif" font-size="11" fill="#2563EB">Export as CSV</text>
  <rect x="186" y="562" width="130" height="24" rx="6" fill="#FFFFFF" stroke="#E2E8F0" stroke-width="1"/>
  <text x="212" y="579" font-family="system-ui, -apple-system, sans-serif" font-size="11" fill="#2563EB">Export as PDF</text>

  <!-- Callout boxes -->
  <g filter="url(#callout)">
    <rect x="32" y="614" width="360" height="80" rx="10" fill="#FFFFFF" stroke="#E2E8F0" stroke-width="1"/>
    <rect x="32" y="614" width="4" height="80" rx="2" fill="#3B82F6"/>
    <text x="52" y="640" font-family="system-ui, -apple-system, sans-serif" font-size="14" font-weight="700" fill="#0F172A">Review scan history</text>
    <text x="52" y="662" font-family="system-ui, -apple-system, sans-serif" font-size="11" fill="#64748B">See when each scan ran, how many</text>
    <text x="52" y="678" font-family="system-ui, -apple-system, sans-serif" font-size="11" fill="#64748B">products were analyzed, and its status.</text>
  </g>

  <g filter="url(#callout)">
    <rect x="410" y="614" width="360" height="80" rx="10" fill="#FFFFFF" stroke="#E2E8F0" stroke-width="1"/>
    <rect x="410" y="614" width="4" height="80" rx="2" fill="#059669"/>
    <text x="430" y="640" font-family="system-ui, -apple-system, sans-serif" font-size="14" font-weight="700" fill="#0F172A">Track dead stock over time</text>
    <text x="430" y="662" font-family="system-ui, -apple-system, sans-serif" font-size="11" fill="#64748B">Monitor which products were flagged</text>
    <text x="430" y="678" font-family="system-ui, -apple-system, sans-serif" font-size="11" fill="#64748B">and whether they've been resolved.</text>
  </g>

  <g filter="url(#callout)">
    <rect x="788" y="614" width="360" height="80" rx="10" fill="#FFFFFF" stroke="#E2E8F0" stroke-width="1"/>
    <rect x="788" y="614" width="4" height="80" rx="2" fill="#F59E0B"/>
    <text x="808" y="640" font-family="system-ui, -apple-system, sans-serif" font-size="14" font-weight="700" fill="#0F172A">Export for external analysis</text>
    <text x="808" y="662" font-family="system-ui, -apple-system, sans-serif" font-size="11" fill="#64748B">Download your data as CSV or PDF</text>
    <text x="808" y="678" font-family="system-ui, -apple-system, sans-serif" font-size="11" fill="#64748B">for deeper analysis or record keeping.</text>
  </g>

  <g filter="url(#callout)">
    <rect x="1166" y="614" width="402" height="80" rx="10" fill="#FFFFFF" stroke="#E2E8F0" stroke-width="1"/>
    <rect x="1166" y="614" width="4" height="80" rx="2" fill="#8B5CF6"/>
    <text x="1186" y="640" font-family="system-ui, -apple-system, sans-serif" font-size="14" font-weight="700" fill="#0F172A">Pro plan feature</text>
    <text x="1186" y="662" font-family="system-ui, -apple-system, sans-serif" font-size="11" fill="#64748B">Reports &amp; export are available on</text>
    <text x="1186" y="678" font-family="system-ui, -apple-system, sans-serif" font-size="11" fill="#64748B">the Pro plan. Upgrade in Settings.</text>
  </g>

  <!-- Footer -->
  <rect y="850" width="1600" height="50" fill="#FFFFFF" stroke="#E2E8F0" stroke-width="1"/>
  <text x="32" y="878" font-family="system-ui, -apple-system, sans-serif" font-size="11" fill="#94A3B8">GenieStock — Identify unsold products and recover stuck inventory.</text>
</svg>
