<svg xmlns="http://www.w3.org/2000/svg" width="1600" height="900" viewBox="0 0 1600 900">
  <defs>
    <linearGradient id="bg" x1="0" y1="0" x2="0" y2="1">
      <stop offset="0%" stop-color="#F8FAFC"/>
      <stop offset="100%" stop-color="#F1F5F9"/>
    </linearGradient>
    <filter id="shadow"><feDropShadow dx="0" dy="2" stdDeviation="6" flood-color="#0F172A" flood-opacity="0.08"/></filter>
  </defs>
  <rect width="1600" height="900" fill="url(#bg)"/>

  <!-- Top nav bar -->
  <rect width="1600" height="48" fill="#FFFFFF"/>
  <rect y="47" width="1600" height="1" fill="#E2E8F0"/>
  <text x="24" y="30" font-family="system-ui, -apple-system, sans-serif" font-size="16" font-weight="700" fill="#0F172A">GenieStock</text>
  <rect x="180" y="12" width="88" height="24" rx="6" fill="#EFF6FF"/>
  <text x="194" y="29" font-family="system-ui, -apple-system, sans-serif" font-size="12" fill="#2563EB" font-weight="600">Dashboard</text>
  <text x="284" y="29" font-family="system-ui, -apple-system, sans-serif" font-size="12" fill="#64748B">Settings</text>
  <text x="354" y="29" font-family="system-ui, -apple-system, sans-serif" font-size="12" fill="#64748B">Reports</text>
  <text x="424" y="29" font-family="system-ui, -apple-system, sans-serif" font-size="12" fill="#64748B">Privacy</text>

  <!-- Page title -->
  <text x="32" y="86" font-family="system-ui, -apple-system, sans-serif" font-size="22" font-weight="700" fill="#0F172A">Dashboard</text>
  <text x="32" y="108" font-family="system-ui, -apple-system, sans-serif" font-size="13" fill="#94A3B8">Last scanned: Today, 2:30 PM · 245 products analyzed</text>

  <!-- Stat cards -->
  <g filter="url(#shadow)">
    <rect x="32" y="128" width="370" height="78" rx="10" fill="#FFFFFF"/>
    <rect x="32" y="128" width="4" height="78" rx="2" fill="#8B5CF6"/>
    <text x="50" y="156" font-family="system-ui, -apple-system, sans-serif" font-size="12" fill="#64748B">Flagged Products</text>
    <text x="50" y="188" font-family="system-ui, -apple-system, sans-serif" font-size="24" font-weight="700" fill="#0F172A">36</text>
  </g>
  <g filter="url(#shadow)">
    <rect x="414" y="128" width="370" height="78" rx="10" fill="#FFFFFF"/>
    <rect x="414" y="128" width="4" height="78" rx="2" fill="#EF4444"/>
    <text x="432" y="156" font-family="system-ui, -apple-system, sans-serif" font-size="12" fill="#64748B">Stuck Inventory Value</text>
    <text x="432" y="188" font-family="system-ui, -apple-system, sans-serif" font-size="24" font-weight="700" fill="#0F172A">$18,240</text>
  </g>
  <g filter="url(#shadow)">
    <rect x="796" y="128" width="370" height="78" rx="10" fill="#FFFFFF"/>
    <rect x="796" y="128" width="4" height="78" rx="2" fill="#10B981"/>
    <text x="814" y="156" font-family="system-ui, -apple-system, sans-serif" font-size="12" fill="#64748B">Resolved This Week</text>
    <text x="814" y="188" font-family="system-ui, -apple-system, sans-serif" font-size="24" font-weight="700" fill="#0F172A">12</text>
  </g>
  <g filter="url(#shadow)">
    <rect x="1178" y="128" width="390" height="78" rx="10" fill="#FFFFFF"/>
    <rect x="1178" y="128" width="4" height="78" rx="2" fill="#F59E0B"/>
    <text x="1196" y="156" font-family="system-ui, -apple-system, sans-serif" font-size="12" fill="#64748B">Plan</text>
    <text x="1196" y="188" font-family="system-ui, -apple-system, sans-serif" font-size="24" font-weight="700" fill="#0F172A">Pro</text>
  </g>

  <!-- Table header -->
  <rect x="32" y="224" width="1536" height="40" rx="8" fill="#F8FAFC"/>
  <text x="48" y="249" font-family="system-ui, -apple-system, sans-serif" font-size="11" font-weight="600" fill="#64748B">PRODUCT</text>
  <text x="400" y="249" font-family="system-ui, -apple-system, sans-serif" font-size="11" font-weight="600" fill="#64748B">PRICE</text>
  <text x="520" y="249" font-family="system-ui, -apple-system, sans-serif" font-size="11" font-weight="600" fill="#64748B">INVENTORY</text>
  <text x="660" y="249" font-family="system-ui, -apple-system, sans-serif" font-size="11" font-weight="600" fill="#64748B">DAYS</text>
  <text x="780" y="249" font-family="system-ui, -apple-system, sans-serif" font-size="11" font-weight="600" fill="#64748B">REASON</text>
  <text x="1100" y="249" font-family="system-ui, -apple-system, sans-serif" font-size="11" font-weight="600" fill="#64748B">SUGGESTED</text>
  <text x="1390" y="249" font-family="system-ui, -apple-system, sans-serif" font-size="11" font-weight="600" fill="#64748B">ACTIONS</text>

  <!-- Row 1 -->
  <rect x="32" y="264" width="1536" height="56" fill="#FFFFFF"/>
  <rect x="44" y="278" width="32" height="28" rx="6" fill="#F1F5F9"/>
  <text x="84" y="294" font-family="system-ui, -apple-system, sans-serif" font-size="13" fill="#2563EB" font-weight="500">Wool Blend Sweater</text>
  <text x="84" y="310" font-family="system-ui, -apple-system, sans-serif" font-size="10" fill="#94A3B8">Handle: wool-blend-sweater</text>
  <text x="400" y="295" font-family="system-ui, -apple-system, sans-serif" font-size="13" fill="#0F172A">$89.00</text>
  <rect x="500" y="284" width="70" height="20" rx="4" fill="#F1F5F9"/>
  <text x="510" y="298" font-family="system-ui, -apple-system, sans-serif" font-size="10" fill="#64748B">Untracked</text>
  <rect x="647" y="284" width="44" height="20" rx="10" fill="#FEE2E2"/>
  <text x="655" y="298" font-family="system-ui, -apple-system, sans-serif" font-size="10" fill="#DC2626" font-weight="600">120d</text>
  <text x="780" y="295" font-family="system-ui, -apple-system, sans-serif" font-size="12" fill="#64748B">Never sold since added 4 months ago</text>
  <rect x="1088" y="282" width="72" height="24" rx="6" fill="#FEE2E2"/>
  <text x="1096" y="298" font-family="system-ui, -apple-system, sans-serif" font-size="11" fill="#DC2626" font-weight="600">Archive</text>
  <rect x="1390" y="280" width="60" height="28" rx="6" fill="#2563EB"/>
  <text x="1398" y="299" font-family="system-ui, -apple-system, sans-serif" font-size="11" fill="#FFFFFF" font-weight="600">Apply</text>
  <rect x="1460" y="280" width="80" height="28" rx="6" fill="#FFFFFF" stroke="#CBD5E1" stroke-width="1"/>
  <text x="1472" y="299" font-family="system-ui, -apple-system, sans-serif" font-size="11" fill="#64748B">Exclude</text>
  <line x1="32" y1="320" x2="1568" y2="320" stroke="#F1F5F9" stroke-width="1"/>

  <!-- Row 2 -->
  <rect x="32" y="320" width="1536" height="56" fill="#FFFFFF"/>
  <rect x="44" y="334" width="32" height="28" rx="6" fill="#F1F5F9"/>
  <text x="84" y="350" font-family="system-ui, -apple-system, sans-serif" font-size="13" fill="#2563EB" font-weight="500">Classic Leather Jacket</text>
  <text x="84" y="366" font-family="system-ui, -apple-system, sans-serif" font-size="10" fill="#94A3B8">Handle: classic-leather-jacket</text>
  <text x="400" y="351" font-family="system-ui, -apple-system, sans-serif" font-size="13" fill="#0F172A">$249.00</text>
  <rect x="500" y="340" width="60" height="20" rx="4" fill="#ECFDF5"/>
  <text x="508" y="354" font-family="system-ui, -apple-system, sans-serif" font-size="10" fill="#059669">In Stock</text>
  <rect x="647" y="340" width="44" height="20" rx="10" fill="#FEF3C7"/>
  <text x="655" y="354" font-family="system-ui, -apple-system, sans-serif" font-size="10" fill="#D97706" font-weight="600">74d</text>
  <text x="780" y="351" font-family="system-ui, -apple-system, sans-serif" font-size="12" fill="#64748B">Last sold 74 days ago — may need promotion</text>
  <rect x="1088" y="338" width="82" height="24" rx="6" fill="#FEF3C7"/>
  <text x="1096" y="354" font-family="system-ui, -apple-system, sans-serif" font-size="11" fill="#D97706" font-weight="600">30% off</text>
  <rect x="1390" y="336" width="60" height="28" rx="6" fill="#2563EB"/>
  <text x="1398" y="355" font-family="system-ui, -apple-system, sans-serif" font-size="11" fill="#FFFFFF" font-weight="600">Apply</text>
  <rect x="1460" y="336" width="80" height="28" rx="6" fill="#FFFFFF" stroke="#CBD5E1" stroke-width="1"/>
  <text x="1472" y="355" font-family="system-ui, -apple-system, sans-serif" font-size="11" fill="#64748B">Exclude</text>
  <line x1="32" y1="376" x2="1568" y2="376" stroke="#F1F5F9" stroke-width="1"/>

  <!-- Row 3 -->
  <rect x="32" y="376" width="1536" height="56" fill="#FFFFFF"/>
  <rect x="44" y="390" width="32" height="28" rx="6" fill="#F1F5F9"/>
  <text x="84" y="406" font-family="system-ui, -apple-system, sans-serif" font-size="13" fill="#2563EB" font-weight="500">Canvas Backpack</text>
  <text x="84" y="422" font-family="system-ui, -apple-system, sans-serif" font-size="10" fill="#94A3B8">Handle: canvas-backpack</text>
  <text x="400" y="407" font-family="system-ui, -apple-system, sans-serif" font-size="13" fill="#0F172A">$59.00</text>
  <rect x="500" y="396" width="60" height="20" rx="4" fill="#ECFDF5"/>
  <text x="508" y="410" font-family="system-ui, -apple-system, sans-serif" font-size="10" fill="#059669">In Stock</text>
  <rect x="647" y="396" width="44" height="20" rx="10" fill="#DCFCE7"/>
  <text x="655" y="410" font-family="system-ui, -apple-system, sans-serif" font-size="10" fill="#16A34A" font-weight="600">32d</text>
  <text x="780" y="407" font-family="system-ui, -apple-system, sans-serif" font-size="12" fill="#64748B">1 sale in 32 days — may be overpriced</text>
  <rect x="1088" y="394" width="72" height="24" rx="6" fill="#DBEAFE"/>
  <text x="1096" y="410" font-family="system-ui, -apple-system, sans-serif" font-size="11" fill="#2563EB" font-weight="600">Bundle</text>
  <rect x="1390" y="392" width="60" height="28" rx="6" fill="#2563EB"/>
  <text x="1398" y="411" font-family="system-ui, -apple-system, sans-serif" font-size="11" fill="#FFFFFF" font-weight="600">Apply</text>
  <rect x="1460" y="392" width="80" height="28" rx="6" fill="#FFFFFF" stroke="#CBD5E1" stroke-width="1"/>
  <text x="1472" y="411" font-family="system-ui, -apple-system, sans-serif" font-size="11" fill="#64748B">Exclude</text>
  <line x1="32" y1="432" x2="1568" y2="432" stroke="#F1F5F9" stroke-width="1"/>

  <!-- Row 4 -->
  <rect x="32" y="432" width="1536" height="56" fill="#FFFFFF"/>
  <rect x="44" y="446" width="32" height="28" rx="6" fill="#F1F5F9"/>
  <text x="84" y="462" font-family="system-ui, -apple-system, sans-serif" font-size="13" fill="#2563EB" font-weight="500">Cotton T-Shirt Pack (3-Pack)</text>
  <text x="84" y="478" font-family="system-ui, -apple-system, sans-serif" font-size="10" fill="#94A3B8">Handle: cotton-tshirt-3pack</text>
  <text x="400" y="463" font-family="system-ui, -apple-system, sans-serif" font-size="13" fill="#0F172A">$39.00</text>
  <rect x="500" y="452" width="60" height="20" rx="4" fill="#ECFDF5"/>
  <text x="508" y="466" font-family="system-ui, -apple-system, sans-serif" font-size="10" fill="#059669">In Stock</text>
  <rect x="647" y="452" width="44" height="20" rx="10" fill="#FEF3C7"/>
  <text x="655" y="466" font-family="system-ui, -apple-system, sans-serif" font-size="10" fill="#D97706" font-weight="600">58d</text>
  <text x="780" y="463" font-family="system-ui, -apple-system, sans-serif" font-size="12" fill="#64748B">Last sold 58 days ago — low demand</text>
  <rect x="1088" y="450" width="82" height="24" rx="6" fill="#FEF3C7"/>
  <text x="1096" y="466" font-family="system-ui, -apple-system, sans-serif" font-size="11" fill="#D97706" font-weight="600">30% off</text>
  <rect x="1390" y="448" width="60" height="28" rx="6" fill="#2563EB"/>
  <text x="1398" y="467" font-family="system-ui, -apple-system, sans-serif" font-size="11" fill="#FFFFFF" font-weight="600">Apply</text>
  <rect x="1460" y="448" width="80" height="28" rx="6" fill="#FFFFFF" stroke="#CBD5E1" stroke-width="1"/>
  <text x="1472" y="467" font-family="system-ui, -apple-system, sans-serif" font-size="11" fill="#64748B">Exclude</text>
  <line x1="32" y1="488" x2="1568" y2="488" stroke="#F1F5F9" stroke-width="1"/>

  <!-- Row 5 -->
  <rect x="32" y="488" width="1536" height="56" fill="#FFFFFF"/>
  <rect x="44" y="502" width="32" height="28" rx="6" fill="#F1F5F9"/>
  <text x="84" y="518" font-family="system-ui, -apple-system, sans-serif" font-size="13" fill="#2563EB" font-weight="500">Denim Jacket</text>
  <text x="84" y="534" font-family="system-ui, -apple-system, sans-serif" font-size="10" fill="#94A3B8">Handle: denim-jacket</text>
  <text x="400" y="519" font-family="system-ui, -apple-system, sans-serif" font-size="13" fill="#0F172A">$119.00</text>
  <rect x="500" y="508" width="60" height="20" rx="4" fill="#ECFDF5"/>
  <text x="508" y="522" font-family="system-ui, -apple-system, sans-serif" font-size="10" fill="#059669">In Stock</text>
  <rect x="647" y="508" width="44" height="20" rx="10" fill="#FEE2E2"/>
  <text x="655" y="522" font-family="system-ui, -apple-system, sans-serif" font-size="10" fill="#DC2626" font-weight="600">95d</text>
  <text x="780" y="519" font-family="system-ui, -apple-system, sans-serif" font-size="12" fill="#64748B">Sold well until 95 days ago — seasonal</text>
  <rect x="1088" y="506" width="72" height="24" rx="6" fill="#FEE2E2"/>
  <text x="1096" y="522" font-family="system-ui, -apple-system, sans-serif" font-size="11" fill="#DC2626" font-weight="600">Archive</text>
  <rect x="1390" y="504" width="60" height="28" rx="6" fill="#2563EB"/>
  <text x="1398" y="523" font-family="system-ui, -apple-system, sans-serif" font-size="11" fill="#FFFFFF" font-weight="600">Apply</text>
  <rect x="1460" y="504" width="80" height="28" rx="6" fill="#FFFFFF" stroke="#CBD5E1" stroke-width="1"/>
  <text x="1472" y="523" font-family="system-ui, -apple-system, sans-serif" font-size="11" fill="#64748B">Exclude</text>

  <!-- Bottom info -->
  <text x="32" y="575" font-family="system-ui, -apple-system, sans-serif" font-size="12" fill="#94A3B8">Showing 5 of 36 flagged products</text>

  <!-- Footer -->
  <rect y="850" width="1600" height="50" fill="#FFFFFF"/>
  <rect y="850" width="1600" height="1" fill="#E2E8F0"/>
  <text x="32" y="878" font-family="system-ui, -apple-system, sans-serif" font-size="11" fill="#94A3B8">GenieStock — Identify unsold products and get smart suggestions.</text>
</svg>
